<svg width="20" height="20" viewBox="0 0 20 20" fill="none" xmlns="http://www.w3.org/2000/svg">
<g clip-path="url(#clip0_1625_4913)">
<path d="M16.7796 20C16.4714 19.9992 16.1663 19.9372 15.8821 19.8178C15.5979 19.6984 15.3402 19.5238 15.1238 19.3042L9.9988 14.2092L4.8738 19.3075C4.54466 19.6414 4.12254 19.8685 3.66248 19.959C3.20242 20.0495 2.72576 19.9993 2.29463 19.815C1.85923 19.6399 1.48676 19.3375 1.22585 18.9474C0.964943 18.5573 0.827732 18.0976 0.832134 17.6283V4.16667C0.832134 3.0616 1.27112 2.00179 2.05252 1.22039C2.83392 0.438987 3.89373 0 4.9988 0L14.9988 0C15.546 0 16.0878 0.107774 16.5933 0.317169C17.0988 0.526563 17.5582 0.833478 17.9451 1.22039C18.332 1.6073 18.6389 2.06663 18.8483 2.57215C19.0577 3.07768 19.1655 3.61949 19.1655 4.16667V17.6283C19.1701 18.0972 19.0334 18.5567 18.7731 18.9467C18.5128 19.3368 18.1411 19.6393 17.7063 19.815C17.4128 19.9377 17.0978 20.0006 16.7796 20ZM4.9988 1.66667C4.33576 1.66667 3.69988 1.93006 3.23103 2.3989C2.76219 2.86774 2.4988 3.50363 2.4988 4.16667V17.6283C2.4985 17.7672 2.53936 17.903 2.61622 18.0187C2.69308 18.1343 2.80249 18.2246 2.93063 18.2781C3.05877 18.3316 3.19989 18.3459 3.33617 18.3193C3.47245 18.2926 3.59777 18.2262 3.6963 18.1283L9.41547 12.4442C9.5716 12.289 9.78281 12.2018 10.003 12.2018C10.2231 12.2018 10.4343 12.289 10.5905 12.4442L16.303 18.1267C16.4015 18.2245 16.5268 18.291 16.6631 18.3176C16.7994 18.3443 16.9405 18.33 17.0686 18.2765C17.1968 18.2229 17.3062 18.1327 17.3831 18.017C17.4599 17.9014 17.5008 17.7655 17.5005 17.6267V4.16667C17.5005 3.50363 17.2371 2.86774 16.7682 2.3989C16.2994 1.93006 15.6635 1.66667 15.0005 1.66667H4.9988Z" fill="currentColor"/>
</g>
<defs>
<clipPath id="clip0_1625_4913">
<rect width="20" height="20" fill="white"/>
</clipPath>
</defs>
</svg>
