<svg width="24" height="24" viewBox="0 0 24 24" fill="none" xmlns="http://www.w3.org/2000/svg">
<path d="M16 2H15.829C15.416 0.836 14.304 0 13 0H11C9.696 0 8.584 0.836 8.171 2H8C5.243 2 3 4.243 3 7V19C3 21.757 5.243 24 8 24H16C18.757 24 21 21.757 21 19V7C21 4.243 18.757 2 16 2ZM11 2H13C13.552 2 14 2.449 14 3C14 3.551 13.552 4 13 4H11C10.448 4 10 3.551 10 3C10 2.449 10.448 2 11 2ZM19 19C19 20.654 17.654 22 16 22H8C6.346 22 5 20.654 5 19V7C5 5.346 6.346 4 8 4H8.172C8.585 5.164 9.696 6 11 6H13C14.304 6 15.415 5.164 15.828 4H16C17.654 4 19 5.346 19 7V19Z" fill="#666666"/>
</svg>
