<svg width="24" height="24" viewBox="0 0 24 24" fill="none" xmlns="http://www.w3.org/2000/svg">
<path d="M18.7572 15.9353C18.0686 15.9336 17.3864 16.0684 16.7502 16.3319C16.1139 16.5954 15.5362 16.9823 15.0502 17.4703C13.6383 18.8903 11.9586 20.0161 10.1086 20.7826C8.25851 21.549 6.27477 21.9408 4.27224 21.9353H3.12224C2.90035 21.9356 2.68334 21.8701 2.49872 21.747C2.3141 21.6239 2.17016 21.4488 2.08513 21.2438C2.00011 21.0388 1.97782 20.8133 2.0211 20.5956C2.06438 20.378 2.17127 20.1781 2.32824 20.0213L3.02124 19.3283C4.94406 19.2291 6.76156 18.4195 8.12124 17.0563L12.4472 12.7353C12.8694 12.8487 13.3026 12.9158 13.7392 12.9353C13.8252 12.9353 13.9122 12.9353 14.0002 12.9353C15.5924 12.934 17.1192 12.3019 18.2462 11.1773L19.2462 10.1773C19.8334 9.58902 20.2922 8.88539 20.5935 8.11084C20.8949 7.33628 21.0324 6.50764 20.9972 5.67725C20.9639 4.84322 20.7553 4.02555 20.385 3.27746C20.0148 2.52937 19.4911 1.86761 18.8482 1.33525C17.6471 0.383923 16.1354 -0.0872036 14.6064 0.0133206C13.0775 0.113845 11.6405 0.778849 10.5742 1.87925L9.94124 2.51325C9.1762 3.27554 8.61893 4.2209 8.32242 5.25938C8.02591 6.29787 8.00003 7.39494 8.24724 8.44625L3.87924 12.8143C2.51532 14.1734 1.70551 15.9912 1.60724 17.9143L0.914241 18.6073C0.477653 19.0438 0.180347 19.6 0.0599349 20.2056C-0.0604775 20.8111 0.00141336 21.4387 0.237778 22.0091C0.474143 22.5795 0.874362 23.0669 1.3878 23.4098C1.90125 23.7526 2.50485 23.9355 3.12224 23.9353H4.27224C6.53741 23.9414 8.7813 23.4982 10.8741 22.6314C12.9668 21.7646 14.8669 20.4913 16.4642 18.8853C16.9177 18.4318 17.4955 18.123 18.1244 17.9979C18.7533 17.8728 19.4053 17.9369 19.9978 18.1822C20.5903 18.4275 21.0968 18.843 21.4532 19.3761C21.8096 19.9092 22 20.536 22.0002 21.1773V22.9353C22.0002 23.2005 22.1056 23.4548 22.2931 23.6424C22.4807 23.8299 22.735 23.9353 23.0002 23.9353C23.2655 23.9353 23.5198 23.8299 23.7073 23.6424C23.8949 23.4548 24.0002 23.2005 24.0002 22.9353V21.1773C23.9984 19.7874 23.4454 18.455 22.4625 17.4723C21.4796 16.4896 20.1471 15.9368 18.7572 15.9353ZM11.3572 3.92325L11.9902 3.28925C12.8116 2.46391 13.9259 1.99664 15.0902 1.98925C15.9917 1.98047 16.8671 2.29116 17.5612 2.86625C17.9907 3.2209 18.3408 3.66193 18.5887 4.16068C18.8366 4.65944 18.9768 5.20477 19.0002 5.76125C19.0233 6.31477 18.9316 6.86708 18.7307 7.38339C18.5299 7.89971 18.2243 8.36884 17.8332 8.76125L16.8332 9.76125C16.4403 10.1542 15.9699 10.4609 15.4519 10.6619C14.9339 10.863 14.3797 10.9538 13.8246 10.9288C13.2695 10.9038 12.7257 10.7634 12.2279 10.5166C11.7301 10.2698 11.2892 9.92192 10.9332 9.49525C10.3013 8.67905 9.99458 7.65741 10.0725 6.62809C10.1505 5.59877 10.6076 4.63497 11.3552 3.92325H11.3572ZM5.29324 14.2283L9.12924 10.3913C9.22024 10.5213 9.29324 10.6613 9.39624 10.7843C9.72817 11.1764 10.1082 11.5251 10.5272 11.8223L6.70724 15.6423C5.88507 16.467 4.83327 17.0246 3.68924 17.2423C3.90875 16.0992 4.46773 15.0488 5.29324 14.2283Z" fill="#666666"/>
</svg>
