<svg width="24" height="24" viewBox="0 0 24 24" fill="none" xmlns="http://www.w3.org/2000/svg">
<g clip-path="url(#clip0_1474_3668)">
<path d="M3.68629 24.0004C3.65429 24.0004 3.62329 24.0004 3.59129 24.0004C2.56929 23.9734 1.62829 23.5384 0.94229 22.7764C-0.32671 21.3674 -0.21471 18.9924 1.18629 17.5914L7.05429 11.7244C7.30729 11.4704 7.39829 11.0934 7.29529 10.7154C6.93729 9.39741 6.90229 8.03941 7.19329 6.67941C7.90129 3.36441 10.6243 0.735407 13.9703 0.137407C14.9763 -0.0425932 15.9853 -0.0465932 16.9723 0.130407C17.7033 0.259407 18.2713 0.755407 18.4923 1.45541C18.7433 2.25441 18.4893 3.13641 17.8103 3.81441L15.5633 6.03141C14.9053 6.68941 14.8053 7.72141 15.3413 8.37641C15.6493 8.75441 16.0833 8.97441 16.5633 8.99841C17.0353 9.01841 17.4993 8.84341 17.8343 8.50941L20.4143 5.95941C20.9533 5.42041 21.7463 5.22441 22.4843 5.45841C23.2073 5.68541 23.7383 6.28641 23.8693 7.02541C24.0443 8.01241 24.0413 9.02341 23.8623 10.0284C23.2623 13.3754 20.6333 16.0984 17.3183 16.8054C15.9553 17.0964 14.5973 17.0614 13.2823 16.7024C12.9053 16.5984 12.5283 16.6904 12.2743 16.9434L6.29829 22.9184C5.60829 23.6084 4.66129 24.0004 3.68629 24.0004ZM15.6083 1.99341C15.1863 1.99341 14.7543 2.02841 14.3223 2.10541C11.7683 2.56241 9.68829 4.56841 9.14829 7.09641C8.92429 8.14141 8.95029 9.18241 9.22429 10.1894C9.51429 11.2514 9.22429 12.3804 8.46829 13.1374L2.60029 19.0044C1.95029 19.6544 1.86829 20.8144 2.42929 21.4374C2.74429 21.7874 3.17629 21.9874 3.64429 21.9994C4.10529 22.0184 4.55329 21.8364 4.88529 21.5054L10.8603 15.5304C11.6153 14.7754 12.7453 14.4834 13.8083 14.7734C14.8123 15.0474 15.8533 15.0734 16.9013 14.8494C19.4293 14.3104 21.4353 12.2314 21.8933 9.67541C22.0313 8.90341 22.0333 8.12841 21.8993 7.37441V7.36741L19.2443 9.92641C18.5153 10.6554 17.5003 11.0624 16.4633 10.9944C15.4273 10.9424 14.4543 10.4494 13.7943 9.64141C12.6153 8.20241 12.7733 5.99241 14.1553 4.61141L16.4023 2.39441C16.5813 2.21441 16.5933 2.08041 16.5863 2.05341C16.2713 2.01441 15.9433 1.99141 15.6103 1.99141L15.6083 1.99341Z" fill="#666666"/>
</g>
<defs>
<clipPath id="clip0_1474_3668">
<rect width="24" height="24" fill="white"/>
</clipPath>
</defs>
</svg>
