<svg width="24" height="24" viewBox="0 0 24 24" fill="none" xmlns="http://www.w3.org/2000/svg">
<rect width="24" height="24" rx="8" fill="#0088FF"/>
<g clip-path="url(#clip0_1970_4512)">
<path d="M18.8804 6.95401L9.66772 16.166C9.60578 16.2282 9.53218 16.2775 9.45112 16.3112C9.37007 16.3449 9.28316 16.3622 9.19539 16.3622C9.10762 16.3622 9.02072 16.3449 8.93966 16.3112C8.85861 16.2775 8.785 16.2282 8.72306 16.166L5.16039 12.6C5.09845 12.5378 5.02484 12.4885 4.94379 12.4548C4.86273 12.4211 4.77583 12.4038 4.68806 12.4038C4.60029 12.4038 4.51338 12.4211 4.43233 12.4548C4.35127 12.4885 4.27766 12.5378 4.21572 12.6C4.15354 12.6619 4.1042 12.7356 4.07053 12.8166C4.03686 12.8977 4.01953 12.9846 4.01953 13.0723C4.01953 13.1601 4.03686 13.247 4.07053 13.3281C4.1042 13.4091 4.15354 13.4827 4.21572 13.5447L7.77972 17.108C8.15569 17.4833 8.66519 17.694 9.19639 17.694C9.72759 17.694 10.2371 17.4833 10.6131 17.108L19.8251 7.89801C19.8871 7.83608 19.9364 7.76251 19.97 7.68152C20.0036 7.60052 20.0209 7.5137 20.0209 7.42601C20.0209 7.33832 20.0036 7.25149 19.97 7.17049C19.9364 7.0895 19.8871 7.01593 19.8251 6.95401C19.7631 6.89182 19.6895 6.84248 19.6085 6.80881C19.5274 6.77514 19.4405 6.75781 19.3527 6.75781C19.265 6.75781 19.1781 6.77514 19.097 6.80881C19.0159 6.84248 18.9423 6.89182 18.8804 6.95401Z" fill="white"/>
</g>
<defs>
<clipPath id="clip0_1970_4512">
<rect width="16" height="16" fill="white" transform="translate(4 4)"/>
</clipPath>
</defs>
</svg>
