<svg width="20" height="20" viewBox="0 0 20 20" fill="none" xmlns="http://www.w3.org/2000/svg">
<g clip-path="url(#clip0_1457_4168)">
<path d="M9.8849 3.33364C6.39823 3.39114 3.46073 6.27198 3.33656 9.75448C3.26323 11.7778 4.09823 13.6986 5.62823 15.0261C6.28739 15.5986 6.66489 16.4786 6.66489 17.4995C6.66489 18.8778 7.78656 19.9995 9.1649 19.9995H10.8316C12.2099 19.9995 13.3316 18.8778 13.3316 17.4995V17.187C13.3316 16.382 13.7107 15.6053 14.3999 14.9986C15.8399 13.7336 16.6649 11.912 16.6649 9.99948C16.6649 8.19864 15.9574 6.51031 14.6732 5.24698C13.3891 3.98364 11.6874 3.29281 9.8849 3.33364ZM11.6649 17.4995C11.6649 17.9595 11.2916 18.3328 10.8316 18.3328H9.1649C8.7049 18.3328 8.33156 17.9595 8.33156 17.442C8.33156 17.1786 8.30573 16.9203 8.2674 16.6661H11.6991C11.6782 16.8378 11.6649 17.012 11.6649 17.187V17.4995ZM13.2999 13.747C12.8741 14.1211 12.5307 14.5445 12.2666 14.9995H10.8316V11.5128C11.7991 11.1678 12.4982 10.2511 12.4982 9.16614C12.4982 8.70531 12.1257 8.33281 11.6649 8.33281C11.2041 8.33281 10.8316 8.70531 10.8316 9.16614C10.8316 9.62698 10.4582 9.99948 9.99823 9.99948C9.53823 9.99948 9.1649 9.62614 9.1649 9.16614C9.1649 8.70614 8.7924 8.33281 8.33156 8.33281C7.87073 8.33281 7.49823 8.70531 7.49823 9.16614C7.49823 10.2511 8.1974 11.1678 9.1649 11.5128V14.9995H7.70989C7.45156 14.5345 7.12073 14.1161 6.71989 13.7678C5.57323 12.772 4.94656 11.3311 5.00156 9.81448C5.09489 7.20281 7.29823 5.04281 9.91323 5.00031C9.94156 5.00031 9.96906 5.00031 9.99823 5.00031C11.3199 5.00031 12.5624 5.50781 13.5049 6.43614C14.4682 7.38364 14.9991 8.64948 14.9991 10.0003C14.9991 11.4336 14.3799 12.7986 13.3007 13.7478L13.2999 13.747ZM13.9857 2.06114L15.0149 0.386144C15.2549 -0.00718902 15.7682 -0.129689 16.1607 0.112811C16.5532 0.353644 16.6757 0.866144 16.4341 1.25864L15.4049 2.93364C15.2482 3.19031 14.9741 3.33114 14.6941 3.33114C14.5449 3.33114 14.3949 3.29114 14.2591 3.20781C13.8666 2.96698 13.7441 2.45364 13.9857 2.06114ZM19.5091 5.51781L17.8982 6.24448C17.7874 6.29531 17.6707 6.31864 17.5566 6.31864C17.2382 6.31864 16.9357 6.13614 16.7966 5.82781C16.6066 5.40864 16.7932 4.91448 17.2132 4.72614L18.8241 3.99948C19.2457 3.80864 19.7374 3.99698 19.9257 4.41614C20.1157 4.83531 19.9291 5.32948 19.5091 5.51781ZM3.49323 1.25781C3.25239 0.865311 3.37573 0.351978 3.76823 0.111978C4.16239 -0.128022 4.67406 -0.004689 4.91406 0.386978L5.94073 2.06281C6.18156 2.45531 6.05823 2.96864 5.66573 3.20864C5.52989 3.29198 5.37906 3.33114 5.23156 3.33114C4.95073 3.33114 4.67739 3.18948 4.51989 2.93281L3.49323 1.25698V1.25781ZM3.09073 5.88364C2.94823 6.18281 2.64989 6.35698 2.33906 6.35698C2.21823 6.35698 2.09573 6.33114 1.97989 6.27448L0.481561 5.55698C0.0665611 5.35864 -0.109272 4.86114 0.0898944 4.44614C0.287394 4.03031 0.787394 3.85281 1.20073 4.05448L2.69906 4.77198C3.11406 4.97031 3.28989 5.46864 3.09073 5.88364Z" fill="#0088FF"/>
</g>
<defs>
<clipPath id="clip0_1457_4168">
<rect width="20" height="20" fill="white"/>
</clipPath>
</defs>
</svg>
