<svg width="24" height="24" viewBox="0 0 24 24" fill="none" xmlns="http://www.w3.org/2000/svg">
<g clip-path="url(#clip0_1459_4330)">
<path d="M17.5 11C16.121 11 15 12.122 15 13.5V17.5C15 18.878 16.121 20 17.5 20C18.879 20 20 18.878 20 17.5V13.5C20 12.122 18.879 11 17.5 11ZM18 17.5C18 17.776 17.775 18 17.5 18C17.225 18 17 17.776 17 17.5V13.5C17 13.224 17.225 13 17.5 13C17.775 13 18 13.224 18 13.5V17.5ZM9 16.5V17.5C9 18.878 7.879 20 6.5 20C5.409 20 4.404 19.315 4.058 18.333C3.873 17.812 4.146 17.241 4.666 17.057C5.188 16.872 5.76 17.146 5.942 17.666C5.998 17.823 6.249 17.999 6.5 17.999C6.775 17.999 7 17.775 7 17.499V16.499C7 16.223 6.775 15.999 6.5 15.999H5.5C4.673 15.999 4 15.326 4 14.499V12.499C4 11.672 4.673 10.999 5.5 10.999H8C8.553 10.999 9 11.447 9 11.999C9 12.551 8.553 12.999 8 12.999H6V13.999H6.5C7.879 13.999 9 15.122 9 16.5ZM19 2V1C19 0.448 18.553 0 18 0C17.447 0 17 0.448 17 1V2H7V1C7 0.448 6.553 0 6 0C5.447 0 5 0.448 5 1V2C2.243 2 0 4.243 0 7V19C0 21.757 2.243 24 5 24H19C21.757 24 24 21.757 24 19V7C24 4.243 21.757 2 19 2ZM5 4H19C20.654 4 22 5.346 22 7H2C2 5.346 3.346 4 5 4ZM2 19V9H11V22H5C3.346 22 2 20.654 2 19ZM19 22H13V9H22V19C22 20.654 20.654 22 19 22Z" fill="#666666"/>
</g>
<defs>
<clipPath id="clip0_1459_4330">
<rect width="24" height="24" fill="white"/>
</clipPath>
</defs>
</svg>
