<svg width="14" height="13" viewBox="0 0 14 13" fill="none" xmlns="http://www.w3.org/2000/svg">
<path d="M3.75 2.93333L5.61667 0.516667C5.75 0.338889 5.90833 0.208333 6.09167 0.125C6.275 0.0416667 6.46667 0 6.66667 0C6.86667 0 7.05833 0.0416667 7.24167 0.125C7.425 0.208333 7.58333 0.338889 7.71667 0.516667L9.58333 2.93333L12.4167 3.88333C12.7056 3.97222 12.9333 4.13611 13.1 4.375C13.2667 4.61389 13.35 4.87778 13.35 5.16667C13.35 5.3 13.3306 5.43333 13.2917 5.56667C13.2528 5.7 13.1889 5.82778 13.1 5.95L11.2667 8.55L11.3333 11.2833C11.3444 11.6722 11.2167 12 10.95 12.2667C10.6833 12.5333 10.3722 12.6667 10.0167 12.6667C9.99444 12.6667 9.87222 12.65 9.65 12.6167L6.66667 11.7833L3.68333 12.6167C3.62778 12.6389 3.56667 12.6528 3.5 12.6583C3.43333 12.6639 3.37222 12.6667 3.31667 12.6667C2.96111 12.6667 2.65 12.5333 2.38333 12.2667C2.11667 12 1.98889 11.6722 2 11.2833L2.06667 8.53333L0.25 5.95C0.161111 5.82778 0.0972222 5.7 0.0583333 5.56667C0.0194444 5.43333 0 5.3 0 5.16667C0 4.88889 0.0805556 4.63056 0.241667 4.39167C0.402778 4.15278 0.627778 3.98333 0.916667 3.88333L3.75 2.93333Z" fill="#FFC727"/>
</svg>
