<svg width="24" height="24" viewBox="0 0 24 24" fill="none" xmlns="http://www.w3.org/2000/svg">
<g clip-path="url(#clip0_1459_4331)">
<path d="M8.00099 12C7.20986 12 6.4365 12.2346 5.77871 12.6741C5.12091 13.1136 4.60822 13.7384 4.30547 14.4693C4.00272 15.2002 3.9235 16.0044 4.07785 16.7804C4.23219 17.5563 4.61315 18.269 5.17256 18.8284C5.73197 19.3878 6.4447 19.7688 7.22063 19.9231C7.99655 20.0775 8.80082 19.9983 9.53172 19.6955C10.2626 19.3928 10.8873 18.8801 11.3269 18.2223C11.7664 17.5645 12.001 16.7911 12.001 16C12.001 14.9391 11.5796 13.9217 10.8294 13.1716C10.0793 12.4214 9.06185 12 8.00099 12ZM8.00099 18C7.60542 18 7.21875 17.8827 6.88985 17.6629C6.56095 17.4432 6.3046 17.1308 6.15323 16.7654C6.00185 16.3999 5.96225 15.9978 6.03942 15.6098C6.11659 15.2219 6.30707 14.8655 6.58677 14.5858C6.86648 14.3061 7.22284 14.1156 7.61081 14.0384C7.99877 13.9613 8.4009 14.0009 8.76635 14.1522C9.13181 14.3036 9.44416 14.56 9.66393 14.8889C9.88369 15.2178 10.001 15.6044 10.001 16C10.001 16.5304 9.79027 17.0391 9.4152 17.4142C9.04013 17.7893 8.53142 18 8.00099 18ZM21.501 8H8.22999C6.18363 7.97734 4.20361 8.72518 2.68318 10.095C1.16275 11.4648 0.213149 13.3564 0.0229862 15.394C-0.0605079 16.4931 0.0840133 17.5975 0.447484 18.6381C0.810955 19.6787 1.38553 20.6329 2.13518 21.4409C2.88482 22.249 3.79336 22.8934 4.80379 23.3338C5.81423 23.7741 6.90476 24.001 8.00699 24C8.43527 23.9999 8.86289 23.9664 9.28599 23.9C10.5585 23.691 11.7611 23.1759 12.7903 22.399C13.8195 21.622 14.6444 20.6065 15.194 19.44C15.6974 18.4152 15.9728 17.2934 16.001 16.152C15.9942 15.919 16.069 15.6909 16.2126 15.5073C16.3561 15.3236 16.5593 15.1958 16.787 15.146L21.948 14.208C22.5241 14.1033 23.0452 13.7997 23.4204 13.3501C23.7956 12.9006 24.0011 12.3336 24.001 11.748V10.5C24.001 10.1717 23.9363 9.84661 23.8107 9.54329C23.6851 9.23998 23.5009 8.96438 23.2688 8.73223C23.0366 8.50009 22.761 8.31594 22.4577 8.1903C22.1544 8.06466 21.8293 8 21.501 8ZM22.001 11.748C22.001 11.8652 21.9598 11.9786 21.8847 12.0685C21.8096 12.1585 21.7053 12.2191 21.59 12.24L16.428 13.179C15.7449 13.3082 15.1285 13.672 14.6853 14.2076C14.2421 14.7432 14.0001 15.4168 14.001 16.112C13.978 16.9661 13.771 17.8052 13.394 18.572C12.7939 19.8351 11.7705 20.8482 10.5014 21.4356C9.23235 22.0229 7.79769 22.1474 6.44641 21.7875C5.09512 21.4275 3.9125 20.6059 3.10377 19.465C2.29504 18.3242 1.91125 16.9362 2.01899 15.542C2.16989 14.0074 2.89235 12.5856 4.04295 11.5589C5.19354 10.5322 6.68813 9.97578 8.22999 10H21.501C21.6336 10 21.7608 10.0527 21.8545 10.1464C21.9483 10.2402 22.001 10.3674 22.001 10.5V11.748ZM9.00099 4V1C9.00099 0.734784 9.10634 0.48043 9.29388 0.292893C9.48142 0.105357 9.73577 0 10.001 0C10.2662 0 10.5206 0.105357 10.7081 0.292893C10.8956 0.48043 11.001 0.734784 11.001 1V4C11.001 4.26522 10.8956 4.51957 10.7081 4.70711C10.5206 4.89464 10.2662 5 10.001 5C9.73577 5 9.48142 4.89464 9.29388 4.70711C9.10634 4.51957 9.00099 4.26522 9.00099 4ZM12.608 4.553L14.108 1.553C14.2265 1.31563 14.4345 1.13508 14.6862 1.05106C14.8108 1.00946 14.9424 0.992814 15.0735 1.00207C15.2045 1.01132 15.3325 1.0463 15.45 1.105C15.5675 1.1637 15.6723 1.24498 15.7585 1.34419C15.8446 1.4434 15.9103 1.5586 15.9519 1.68322C15.9935 1.80783 16.0102 1.93942 16.0009 2.07047C15.9917 2.20152 15.9567 2.32947 15.898 2.447L14.398 5.447C14.3399 5.56551 14.259 5.67136 14.1598 5.75844C14.0606 5.84551 13.9452 5.91209 13.8201 5.95434C13.6951 5.99659 13.5629 6.01368 13.4313 6.00461C13.2996 5.99554 13.171 5.96049 13.053 5.9015C12.9349 5.8425 12.8297 5.76072 12.7434 5.66087C12.6571 5.56102 12.5914 5.44507 12.5502 5.31971C12.5089 5.19436 12.4928 5.06207 12.5029 4.93048C12.513 4.79889 12.5481 4.67059 12.608 4.553ZM4.10799 2.453C4.04778 2.33562 4.01139 2.20748 4.00093 2.07597C3.99046 1.94447 4.00611 1.81219 4.04699 1.68676C4.08787 1.56133 4.15316 1.44523 4.23911 1.34514C4.32505 1.24506 4.42995 1.16297 4.54776 1.1036C4.66557 1.04423 4.79396 1.00876 4.92554 0.999235C5.05712 0.989706 5.18928 1.00631 5.31442 1.04808C5.43955 1.08985 5.55519 1.15597 5.65465 1.24263C5.75412 1.32929 5.83546 1.43477 5.89399 1.553L7.40999 4.553C7.47392 4.67066 7.51357 4.79996 7.52658 4.93324C7.5396 5.06651 7.52571 5.20104 7.48575 5.32885C7.44579 5.45665 7.38057 5.57513 7.29396 5.67726C7.20734 5.77938 7.1011 5.86307 6.98153 5.92335C6.86196 5.98364 6.7315 6.0193 6.59789 6.02821C6.46428 6.03713 6.33024 6.01912 6.20372 5.97525C6.0772 5.93138 5.96078 5.86255 5.86137 5.77284C5.76196 5.68313 5.68157 5.57436 5.62499 5.453L4.10799 2.453Z" fill="#666666"/>
</g>
<defs>
<clipPath id="clip0_1459_4331">
<rect width="24" height="24" fill="white"/>
</clipPath>
</defs>
</svg>
